{"title":"Midsomer Murders S18E05 - Saints &amp; Sinners x264 RB58.mp4","uid":13496527,"size":1018538999,"categoryP":"video","categoryS":"tv_shows","magnet":"?xt=urn:btih:3cc0a26d2bd34ec156ba9218ebbefdbc417ee121&amp;dn=Midsomer+Murders+S18E05+-+Saints+%26amp%3B+Sinners+x264+RB58.mp4&amp;tr=udp%3A%2F%2Ftracker.leechers-paradise.org%3A6969&amp;tr=udp%3A%2F%2Fzer0day.ch%3A1337&amp;tr=udp%3A%2F%2Fopen.demonii.com%3A1337&amp;tr=udp%3A%2F%2Ftracker.coppersurfer.tk%3A6969&amp;tr=udp%3A%2F%2Fexodus.desync.com%3A6969","seeders":1,"leechers":0,"uploader":"RedBaron58","files":1,"time":1455156715,"description":"Midsomer Murders S18E05 - Saints and Sinners x264 mp4\r\n \nhttp://www.imdb.com/title/tt0118401/\r\n\r\n\r\nPlease be patient My intial upload speed is limited.\r\nThank you for your kind comments and feedback on my other torrents, your feedback is welcome.\r\n\r\n\r\nAbout the Episode:\r\nA Saint's bones are discovered during an archaeological dig, causing a stir in the village \r\nof Midsomer Cicely. However, when the dig's leader is murdered, DCI Barnaby and DS Nelson \r\nare presented with a complex investigation as they hunt for the perpetrator. \r\nAs the duo unearth more evidence, they soon discover that it is not only skeletons that \r\nhave been long buried in the hallowed ground.\r\n\r\nI hope you enjoy.\r\n\r\n\r\nTechnical:\r\n \r\n\r\nGeneral\r\nComplete name                            : G:Midsomer Murders S18E05 - Saints &amp; Sinners x264 RB58.mp4\r\nFormat                                   : MPEG-4\r\nFormat profile                           : Base Media\r\nCodec ID                                 : isom\r\nFile size                                : 971 MiB\r\nDuration                                 : 1h 29mn\r\nOverall bit rate                         : 1 524 Kbps\r\nWriting application                      : Lavf54.63.104\r\n\r\nVideo\r\nID                                       : 1\r\nFormat                                   : AVC\r\nFormat/Info                              : Advanced Video Codec\r\nFormat profile                           :   \r\nFormat settings, CABAC                   : Yes\r\nFormat settings, ReFrames                : 4 frames\r\nCodec ID                                 : avc1\r\nCodec ID/Info                            : Advanced Video Coding\r\nDuration                                 : 1h 29mn\r\nBit rate                                 : 1 400 Kbps\r\nWidth                                    : 832 pixels\r\nHeight                                   : 468 pixels\r\nDisplay aspect ratio                     : 16:9\r\nFrame rate mode                          : Constant\r\nFrame rate                               : 25.000 fps\r\nColor space                              : YUV\r\nChroma subsampling                       : 4:2:0\r\nBit depth                                : 8 bits\r\nScan type                                : Progressive\r\nBits/(Pixel*Frame)                       : 0.144\r\nStream size                              : 893 MiB (92%)\r\nWriting library                          : x264 core 123 r2189 35cf912\r\nEncoding settings                        : cabac=1 / ref=3 / deblock=1:0:0\r\n\r\nAudio\r\nID                                       : 2\r\nFormat                                   : AAC\r\nFormat/Info                              : Advanced Audio Codec\r\nFormat profile                           : LC\r\nCodec ID                                 : 40\r\nDuration                                 : 1h 29mn\r\nBit rate mode                            : Constant\r\nBit rate                                 : 115 Kbps\r\nChannel(s)                               : 2 channels\r\nChannel positions                        : Front: L R\r\nSampling rate                            : 48.0 KHz\r\nCompression mode                         : Lossy\r\nStream size                              : 73.3 MiB (8%)","torrent":{"xt":"urn:btih:3cc0a26d2bd34ec156ba9218ebbefdbc417ee121","amp;dn":"Midsomer+Murders+S18E05+-+Saints+%26amp%3B+Sinners+x264+RB58.mp4","amp;tr":["udp%3A%2F%2Ftracker.leechers-paradise.org%3A6969","udp%3A%2F%2Fzer0day.ch%3A1337","udp%3A%2F%2Fopen.demonii.com%3A1337","udp%3A%2F%2Ftracker.coppersurfer.tk%3A6969","udp%3A%2F%2Fexodus.desync.com%3A6969"],"infoHash":"3cc0a26d2bd34ec156ba9218ebbefdbc417ee121","infoHashBuffer":{"type":"Buffer","data":[60,192,162,109,43,211,78,193,86,186,146,24,235,190,253,188,65,126,225,33]},"announce":[],"urlList":[]}}